<svg version="1.1" xmlns="http://www.w3.org/2000/svg" xmlns:xlink="http://www.w3.org/1999/xlink" x="0px" y="0px" viewBox="0 0 100 100" style="enable-background:new 0 0 100 100;" xml:space="preserve">
  <style type="text/css">
	.st0{fill:#FFAA04;stroke:#000000;stroke-width:3;}
	.st1{fill:#FF5348;}
	.st2{fill:none;stroke:#000000;stroke-width:3;}
	.st3{fill:#FF5348;stroke:#000000;stroke-width:3;}
	.st4{fill:#FFFFFF;}
	.st5{fill:#FFFFFF;stroke:#000000;stroke-width:3;}
	.st6{fill:#408BFB;stroke:#000000;stroke-width:3;}
	.st7{fill:#13C3B8;}
	.st8{fill:#13C3B8;stroke:#000000;stroke-width:3;}
</style>
  <g id="racoon">
    <circle id="bg" class="st0" cx="50" cy="50" r="48.5" />
    <g id="base">
      <g id="ears">
        <g>
          <polyline class="st1" points="23.6,23.6 31.1,20.1 28.7,16.6 24.6,17.6 23.6,23.6" />
          <path class="st2" d="M19.1,26c-4-5.8-2.8-13.5,3.5-13.1c5,0.3,8.5,5,9.7,6.4c0,0-5.2-5.2-8.7-1.7c-2,2,0,6,0,6" />
        </g>
        <g>
          <polyline class="st1" points="76.5,23.6 69,20.1 71.4,16.6 75.5,17.6 76.5,23.6" />
          <path class="st2" d="M81,26c4-5.8,2.8-13.5-3.5-13.1c-5,0.3-8.5,5-9.7,6.4c0,0,5.2-5.2,8.7-1.7c2,2,0,6,0,6" />
        </g>
      </g>
      <path id="mask" class="st3" d="M50.1,48.6c-5.9,0.1-13.3,2.2-23.1,8.2c-1.6,1-3.5,1.4-5.3,1.2c-1.9-0.2-3.6-1-4.9-2.3
			c0,0-0.1-0.1-0.1-0.1c-1-0.9-1.7-2.1-2.3-3.3C5.3,31.4,35,21.6,50.1,21.7c15,0,44.8,9.8,35.7,30.7c-0.5,1.2-1.3,2.4-2.2,3.3
			c0,0-0.1,0.1-0.1,0.1c-1.3,1.3-3.1,2.1-4.9,2.3c-1.9,0.2-3.7-0.2-5.3-1.2C63.3,50.9,55.9,48.7,50.1,48.6" />
    </g>
    <g id="happy">
      <g id="mouth">
        <path d="M58.2,55.8l1-1.8c1-1.7,0.9-3.7-0.2-5.3c-0.9-1.3-2.5-2.1-4.1-2.1h-9.6c-1.6,0-3.2,0.8-4.1,2.1c-1.1,1.6-1.2,3.6-0.2,5.3
				l1,1.8c1.5,2.6,4.2,4.1,7.1,4.1h2C54,59.9,56.7,58.3,58.2,55.8z" />
        <path class="st4" d="M50.1,78.6c-3.3,0-6.6-0.8-9.6-2.3c-1.3-0.7-2.2-1.8-2.6-3.2c-0.4-1.4-0.3-2.8,0.4-4.1
				c0.7-1.3,1.8-2.2,3.1-2.6c1.4-0.4,2.8-0.3,4.1,0.3c1.4,0.7,2.9,1.1,4.5,1.1c1.6,0,3.1-0.3,4.5-1l0.2-0.1c0.6-0.3,1.3-0.5,2-0.6
				s1.4,0,2.1,0.3c0.7,0.2,1.3,0.6,1.8,1c0.5,0.5,1,1,1.3,1.7c0.3,0.6,0.5,1.3,0.6,2s0,1.4-0.3,2.1c-0.2,0.7-0.6,1.3-1,1.8
				c-0.5,0.5-1,1-1.7,1.3l-0.2,0.1C56.4,77.9,53.3,78.6,50.1,78.6z" />
        <path class="st2" d="M38.3,69.1c-0.7,1.3-0.8,2.7-0.4,4.1c0.4,1.4,1.4,2.5,2.6,3.2c3,1.5,6.2,2.3,9.6,2.3c3.2,0,6.4-0.7,9.2-2.2
				l0.2-0.1c0.6-0.3,1.2-0.8,1.7-1.3c0.5-0.5,0.8-1.2,1-1.8c0.2-0.7,0.3-1.4,0.3-2.1s-0.2-1.4-0.6-2 M38.3,69.1
				c0.7-1.3,1.8-2.2,3.1-2.6c1.4-0.4,2.8-0.3,4.1,0.3c1.4,0.7,2.9,1.1,4.5,1.1c1.6,0,3.1-0.3,4.5-1l0.2-0.1c0.6-0.3,1.3-0.5,2-0.6
				s1.4,0,2.1,0.3c0.7,0.2,1.3,0.6,1.8,1c0.5,0.5,1,1,1.3,1.7 M38.3,69.1c1.6,1.4,3.3,2.4,5.1,3.2c0,0,0.4,2.7,0.9,2.8
				c0.5,0.2,1.9-1.9,1.9-1.9c2.6,0.6,5.3,0.6,7.9-0.1c0,0,1.3,2.1,1.8,2c0.5-0.1,0.9-2.8,0.9-2.8c1.8-0.7,3.5-1.8,5.2-3.1" />
        <path class="st2" d="M50.1,57.3V67" />
      </g>
      <g id="eyes">
        <circle class="st5" cx="34" cy="40.1" r="7.1" />
        <circle class="st5" cx="66.1" cy="40.1" r="7.1" />
        <circle cx="34" cy="40.1" r="3.6" />
        <circle cx="66.1" cy="40.1" r="3.6" />
      </g>
    </g>
  </g>
</svg>