<svg version="1.1" xmlns="http://www.w3.org/2000/svg" xmlns:xlink="http://www.w3.org/1999/xlink" x="0px" y="0px" viewBox="0 0 100 100" style="enable-background:new 0 0 100 100;" xml:space="preserve">
  <style type="text/css">
	.st0{fill:#FFAA04;stroke:#000000;stroke-width:3;}
	.st1{fill:#FF5348;}
	.st2{fill:none;stroke:#000000;stroke-width:3;}
	.st3{fill:#FF5348;stroke:#000000;stroke-width:3;}
	.st4{fill:#FFFFFF;}
	.st5{fill:#FFFFFF;stroke:#000000;stroke-width:3;}
	.st6{fill:#408BFB;stroke:#000000;stroke-width:3;}
	.st7{fill:#13C3B8;}
	.st8{fill:#13C3B8;stroke:#000000;stroke-width:3;}
</style>
  <g id="racoon">
    <circle id="bg" class="st6" cx="50" cy="50" r="48.5" />
    <g id="base">
      <g id="ears">
        <g>
          <polyline class="st7" points="23.6,23.6 31.1,20.1 28.7,16.6 24.6,17.6 23.6,23.6" />
          <path class="st2" d="M19.1,26c-4-5.8-2.8-13.5,3.5-13.1c5,0.3,8.5,5,9.7,6.4c0,0-5.2-5.2-8.7-1.7c-2,2,0,6,0,6" />
        </g>
        <g>
          <polyline class="st7" points="76.5,23.6 69,20.1 71.4,16.6 75.5,17.6 76.5,23.6" />
          <path class="st2" d="M81,26c4-5.8,2.8-13.5-3.5-13.1c-5,0.3-8.5,5-9.7,6.4c0,0,5.2-5.2,8.7-1.7c2,2,0,6,0,6" />
        </g>
      </g>
      <path id="mask_00000177460046117238587460000013790332254814550405_" class="st8" d="M50.1,48.6c-5.9,0.1-13.3,2.2-23.1,8.2
			c-1.6,1-3.5,1.4-5.3,1.2c-1.9-0.2-3.6-1-4.9-2.3c0,0-0.1-0.1-0.1-0.1c-1-0.9-1.7-2.1-2.3-3.3C5.3,31.4,35,21.6,50.1,21.7
			c15,0,44.8,9.8,35.7,30.7c-0.5,1.2-1.3,2.4-2.2,3.3c0,0-0.1,0.1-0.1,0.1c-1.3,1.3-3.1,2.1-4.9,2.3c-1.9,0.2-3.7-0.2-5.3-1.2
			C63.3,50.9,55.9,48.7,50.1,48.6" />
    </g>
    <g id="frown">
      <g id="mouth">
        <path d="M58.2,55.8l1-1.8c1-1.7,0.9-3.7-0.2-5.3c-0.9-1.3-2.5-2.1-4.1-2.1h-9.6c-1.6,0-3.2,0.8-4.1,2.1c-1.1,1.6-1.2,3.6-0.2,5.3
				l1,1.8c1.5,2.6,4.2,4.1,7.1,4.1h2C54,59.9,56.7,58.3,58.2,55.8z" />
        <path class="st2" d="M50.1,56.4v9.2c0,3.2-1.3,6.3-3.6,8.6l0,0" />
        <path class="st2" d="M50.1,56.4v9.2c0,3.2,1.3,6.3,3.6,8.6l0,0" />
      </g>
      <g id="eyes">
        <path class="st5" d="M41.2,40.1c0,3.9-3.2,7.1-7.1,7.1c-3.7,0-6.8-2.8-7.1-6.5c0-0.4,0.2-0.7,0.6-0.9c1.4-0.5,4.9-1.9,7.2-3.8
				c1.3-1.1,3.4-1.8,4.5-0.5C40.2,36.8,41.2,38.4,41.2,40.1z" />
        <path d="M37.6,40.1c0,2-1.6,3.6-3.6,3.6c-2,0-3.6-1.6-3.6-3.6l4.9-3.1C36.3,37,37.6,38.2,37.6,40.1z" />
        <path class="st5" d="M59,40.1c0,3.9,3.2,7.1,7.1,7.1c3.7,0,6.8-2.8,7.1-6.5c0-0.4-0.2-0.7-0.6-0.9c-1.4-0.5-4.9-1.9-7.2-3.8
				c-1.3-1.1-3.4-1.8-4.5-0.5C59.9,36.8,59,38.4,59,40.1z" />
        <path d="M62.5,40.1c0,2,1.6,3.6,3.6,3.6c2,0,3.6-1.6,3.6-3.6L64.7,37C63.9,37,62.5,38.2,62.5,40.1z" />
      </g>
    </g>
  </g>
</svg>